<svg width="126" height="32" viewBox="0 0 126 32" fill="none" xmlns="http://www.w3.org/2000/svg">
<path fill-rule="evenodd" clip-rule="evenodd" d="M17.8302 0C18.3564 0 19.0189 0.654028 19.0189 1.17073V23.8049C19.0189 24.3214 18.3564 24.9756 17.8302 24.9756H15.4528C14.9268 24.9756 14.2642 24.3218 14.2642 23.8049V23.0244L13.0177 24.3381C12.68 24.7074 12.0288 24.9756 11.4906 24.9756H7.13208C3.30774 24.9756 0 21.709 0 17.9512V13.304C0 9.54623 3.30774 6.2439 7.13208 6.2439H14.2642V1.17073C14.2642 0.654028 14.9268 0 15.4528 0H17.8302ZM4.75472 17.9512C4.75472 19.1605 5.90143 20.2927 7.13208 20.2927H14.2642V10.9268H7.13208C5.90143 10.9268 4.75472 12.0591 4.75472 13.2683V17.9512ZM47.5472 7.41463V24.9756V25.3659C47.5472 29.1237 44.2394 32 40.4151 32H36.74C36.1932 32 35.6779 31.7481 35.3481 31.3193L33.2562 28.599C32.9087 28.1474 33.1031 27.3171 33.6792 27.3171H40.4151C41.6457 27.3171 42.7925 26.5751 42.7925 25.3659V24.9756H35.6604C31.8362 24.9756 28.5283 21.709 28.5283 17.9512V13.2683C28.5283 9.51067 31.8362 6.2439 35.6604 6.2439H40.0189C40.5643 6.2439 41.1587 6.67604 41.5438 7.02439L42.7925 8.19512V7.41463C42.7925 6.89881 43.4564 6.2439 43.9811 6.2439H46.3585C46.8843 6.2439 47.5472 6.89775 47.5472 7.41463ZM42.7925 10.9268H35.6604C34.4296 10.9268 33.283 12.0591 33.283 13.2683V17.9512C33.283 19.1608 34.4296 20.2927 35.6604 20.2927H42.7925V10.9268ZM57.0566 24.9756V7.41463C57.0566 6.89775 57.7194 6.2439 58.2453 6.2439H60.6226C61.1474 6.2439 61.8113 6.89881 61.8113 7.41463V8.19512L63.06 7.02439C63.445 6.67604 64.0395 6.2439 64.5849 6.2439H68.9434C72.7676 6.2439 76.0755 9.51067 76.0755 13.2683V17.9512C76.0755 21.709 72.7676 24.9756 68.9434 24.9756H61.8113V30.5C61.8113 31.3284 61.1397 32 60.3113 32H58.5566C57.7282 32 57.0566 31.3284 57.0566 30.5V24.9756ZM68.9434 10.9268H61.8113V20.2927H68.9434C70.1742 20.2927 71.3208 19.1608 71.3208 17.9512V13.2683C71.3208 12.0591 70.1742 10.9268 68.9434 10.9268ZM104.604 7.74366C104.604 6.91532 103.932 6.24379 103.104 6.24366L101.349 6.24337C100.521 6.24323 99.8491 6.91484 99.8491 7.74337V17.1707L99.8447 17.3002C99.7668 18.4622 98.6556 19.5122 97.4717 19.5122H92.717L92.5857 19.5079C91.4082 19.4314 90.3396 18.3397 90.3396 17.1707V7.74337C90.3396 6.91484 89.6679 6.24323 88.8394 6.24337L87.0847 6.24366C86.2563 6.24379 85.5849 6.91533 85.5849 7.74366V17.1707L85.5881 17.372C85.7035 21.0525 88.9697 24.1951 92.717 24.1951H97.4717L97.6756 24.192C101.404 24.0786 104.604 20.8699 104.604 17.1707V7.74366ZM51.1132 0C50.5875 0 49.9245 0.654028 49.9245 1.17073V3.5122C49.9245 4.0289 50.5875 4.68293 51.1132 4.68293H53.4906C54.0164 4.68293 54.6792 4.0289 54.6792 3.5122V1.17073C54.6792 0.654028 54.0164 0 53.4906 0H51.1132ZM49.9245 7.41463C49.9245 6.89811 50.5875 6.2439 51.1132 6.2439H53.4906C54.0164 6.2439 54.6792 6.89811 54.6792 7.41463V23.8049C54.6792 24.3214 54.0164 24.9756 53.4906 24.9756L51.2996 25C50.7739 25 49.9245 24.3214 49.9245 23.8049V7.41463ZM22.5849 0C22.0591 0 21.3962 0.654028 21.3962 1.17073V3.5122C21.3962 4.0289 22.0591 4.68293 22.5849 4.68293H24.9623C25.4881 4.68293 26.1509 4.0289 26.1509 3.5122V1.17073C26.1509 0.654028 25.4881 0 24.9623 0H22.5849ZM21.3962 7.41463C21.3962 6.89811 22.0591 6.2439 22.5849 6.2439H24.9623C25.4881 6.2439 26.1509 6.89811 26.1509 7.41463V23.8049C26.1509 24.3214 25.4881 24.9756 24.9623 24.9756H22.5849C22.0591 24.9756 21.3962 24.3214 21.3962 23.8049V7.41463ZM83.2075 1.17073V23.8049C83.2075 24.3214 82.5449 24.9756 82.0189 24.9756H79.6415C79.1155 24.9756 78.4528 24.3214 78.4528 23.8049V1.17073C78.4528 0.654028 79.1155 0 79.6415 0H82.0189C82.5449 0 83.2075 0.654028 83.2075 1.17073ZM107.774 23.4756C107.774 24.304 108.445 24.9756 109.274 24.9756H120.556C123.478 24.9756 125.938 22.6941 125.999 19.8012C126.05 17.3328 124.38 15.1699 121.973 14.5657L112.172 12.1062C111.872 12.0308 111.673 11.7393 111.728 11.4246C111.779 11.1358 112.05 10.9351 112.346 10.9351L123.708 10.9352C124.536 10.9353 125.208 10.2637 125.208 9.43525V7.7439C125.208 6.91548 124.536 6.2439 123.708 6.2439H112.425C109.503 6.2439 107.043 8.5253 106.982 11.4182C106.931 13.8866 108.601 16.0495 111.008 16.6536L120.809 19.1133C121.109 19.1888 121.308 19.4803 121.253 19.795C121.202 20.0837 120.931 20.2843 120.635 20.2843H109.274C108.445 20.2843 107.774 20.9558 107.774 21.7843V23.4756Z" fill="white"/>
<mask id="mask0" mask-type="alpha" maskUnits="userSpaceOnUse" x="0" y="0" width="126" height="32">
<path fill-rule="evenodd" clip-rule="evenodd" d="M17.8302 0C18.3564 0 19.0189 0.654028 19.0189 1.17073V23.8049C19.0189 24.3214 18.3564 24.9756 17.8302 24.9756H15.4528C14.9268 24.9756 14.2642 24.3218 14.2642 23.8049V23.0244L13.0177 24.3381C12.68 24.7074 12.0288 24.9756 11.4906 24.9756H7.13208C3.30774 24.9756 0 21.709 0 17.9512V13.304C0 9.54623 3.30774 6.2439 7.13208 6.2439H14.2642V1.17073C14.2642 0.654028 14.9268 0 15.4528 0H17.8302ZM4.75472 17.9512C4.75472 19.1605 5.90143 20.2927 7.13208 20.2927H14.2642V10.9268H7.13208C5.90143 10.9268 4.75472 12.0591 4.75472 13.2683V17.9512ZM47.5472 7.41463V24.9756V25.3659C47.5472 29.1237 44.2394 32 40.4151 32H36.74C36.1932 32 35.6779 31.7481 35.3481 31.3193L33.2562 28.599C32.9087 28.1474 33.1031 27.3171 33.6792 27.3171H40.4151C41.6457 27.3171 42.7925 26.5751 42.7925 25.3659V24.9756H35.6604C31.8362 24.9756 28.5283 21.709 28.5283 17.9512V13.2683C28.5283 9.51067 31.8362 6.2439 35.6604 6.2439H40.0189C40.5643 6.2439 41.1587 6.67604 41.5438 7.02439L42.7925 8.19512V7.41463C42.7925 6.89881 43.4564 6.2439 43.9811 6.2439H46.3585C46.8843 6.2439 47.5472 6.89775 47.5472 7.41463ZM42.7925 10.9268H35.6604C34.4296 10.9268 33.283 12.0591 33.283 13.2683V17.9512C33.283 19.1608 34.4296 20.2927 35.6604 20.2927H42.7925V10.9268ZM57.0566 24.9756V7.41463C57.0566 6.89775 57.7194 6.2439 58.2453 6.2439H60.6226C61.1474 6.2439 61.8113 6.89881 61.8113 7.41463V8.19512L63.06 7.02439C63.445 6.67604 64.0395 6.2439 64.5849 6.2439H68.9434C72.7676 6.2439 76.0755 9.51067 76.0755 13.2683V17.9512C76.0755 21.709 72.7676 24.9756 68.9434 24.9756H61.8113V30.5C61.8113 31.3284 61.1397 32 60.3113 32H58.5566C57.7282 32 57.0566 31.3284 57.0566 30.5V24.9756ZM68.9434 10.9268H61.8113V20.2927H68.9434C70.1742 20.2927 71.3208 19.1608 71.3208 17.9512V13.2683C71.3208 12.0591 70.1742 10.9268 68.9434 10.9268ZM104.604 7.74366C104.604 6.91532 103.932 6.24379 103.104 6.24366L101.349 6.24337C100.521 6.24323 99.8491 6.91484 99.8491 7.74337V17.1707L99.8447 17.3002C99.7668 18.4622 98.6556 19.5122 97.4717 19.5122H92.717L92.5857 19.5079C91.4082 19.4314 90.3396 18.3397 90.3396 17.1707V7.74337C90.3396 6.91484 89.6679 6.24323 88.8394 6.24337L87.0847 6.24366C86.2563 6.24379 85.5849 6.91533 85.5849 7.74366V17.1707L85.5881 17.372C85.7035 21.0525 88.9697 24.1951 92.717 24.1951H97.4717L97.6756 24.192C101.404 24.0786 104.604 20.8699 104.604 17.1707V7.74366ZM51.1132 0C50.5875 0 49.9245 0.654028 49.9245 1.17073V3.5122C49.9245 4.0289 50.5875 4.68293 51.1132 4.68293H53.4906C54.0164 4.68293 54.6792 4.0289 54.6792 3.5122V1.17073C54.6792 0.654028 54.0164 0 53.4906 0H51.1132ZM49.9245 7.41463C49.9245 6.89811 50.5875 6.2439 51.1132 6.2439H53.4906C54.0164 6.2439 54.6792 6.89811 54.6792 7.41463V23.8049C54.6792 24.3214 54.0164 24.9756 53.4906 24.9756L51.2996 25C50.7739 25 49.9245 24.3214 49.9245 23.8049V7.41463ZM22.5849 0C22.0591 0 21.3962 0.654028 21.3962 1.17073V3.5122C21.3962 4.0289 22.0591 4.68293 22.5849 4.68293H24.9623C25.4881 4.68293 26.1509 4.0289 26.1509 3.5122V1.17073C26.1509 0.654028 25.4881 0 24.9623 0H22.5849ZM21.3962 7.41463C21.3962 6.89811 22.0591 6.2439 22.5849 6.2439H24.9623C25.4881 6.2439 26.1509 6.89811 26.1509 7.41463V23.8049C26.1509 24.3214 25.4881 24.9756 24.9623 24.9756H22.5849C22.0591 24.9756 21.3962 24.3214 21.3962 23.8049V7.41463ZM83.2075 1.17073V23.8049C83.2075 24.3214 82.5449 24.9756 82.0189 24.9756H79.6415C79.1155 24.9756 78.4528 24.3214 78.4528 23.8049V1.17073C78.4528 0.654028 79.1155 0 79.6415 0H82.0189C82.5449 0 83.2075 0.654028 83.2075 1.17073ZM107.774 23.4756C107.774 24.304 108.445 24.9756 109.274 24.9756H120.556C123.478 24.9756 125.938 22.6941 125.999 19.8012C126.05 17.3328 124.38 15.1699 121.973 14.5657L112.172 12.1062C111.872 12.0308 111.673 11.7393 111.728 11.4246C111.779 11.1358 112.05 10.9351 112.346 10.9351L123.708 10.9352C124.536 10.9353 125.208 10.2637 125.208 9.43525V7.7439C125.208 6.91548 124.536 6.2439 123.708 6.2439H112.425C109.503 6.2439 107.043 8.5253 106.982 11.4182C106.931 13.8866 108.601 16.0495 111.008 16.6536L120.809 19.1133C121.109 19.1888 121.308 19.4803 121.253 19.795C121.202 20.0837 120.931 20.2843 120.635 20.2843H109.274C108.445 20.2843 107.774 20.9558 107.774 21.7843V23.4756Z" fill="white"/>
</mask>
<g mask="url(#mask0)">
<rect width="126" height="32" fill="white"/>
</g>
</svg>
